HIERARCHY
ROOT Hips
{
	OFFSET 0.000000 0.000000 0.000000
	CHANNELS 6 Xposition Yposition Zposition Xrotation Yrotation Zrotation
	JOINT LeftUpLeg_virtual
	{
		OFFSET 0.000000 0.000000 0.000000
		CHANNELS 3 Xrotation Yrotation Zrotation
		JOINT LeftUpLeg
		{
			OFFSET 10.205400 -3.823500 0.155100
			CHANNELS 3 Xrotation Yrotation Zrotation
			JOINT LeftLeg
			{
				OFFSET 0.708757 -12.982077 0.567790
				CHANNELS 3 Xrotation Yrotation Zrotation
				JOINT LeftFoot
				{
					OFFSET -0.708756 -10.717838 -2.184338
					CHANNELS 3 Xrotation Yrotation Zrotation
					JOINT LeftToeBase
					{
						OFFSET 0.108149 -7.191104 7.560241
						CHANNELS 3 Xrotation Yrotation Zrotation
						JOINT LeftToe_End
						{
							OFFSET 0.070230 0.081724 4.490308
							CHANNELS 3 Xrotation Yrotation Zrotation
							End Site
							{
								OFFSET 0 0 0
							}
						}
					}
				}
			}
		}
	}
	JOINT RightUpLeg_virtual
	{
		OFFSET 0.000000 0.000000 0.000000
		CHANNELS 3 Xrotation Yrotation Zrotation
		JOINT RightUpLeg
		{
			OFFSET -10.205400 -3.823500 0.005500
			CHANNELS 3 Xrotation Yrotation Zrotation
			JOINT RightLeg
			{
				OFFSET -0.708756 -12.982134 0.610632
				CHANNELS 3 Xrotation Yrotation Zrotation
				JOINT RightFoot
				{
					OFFSET 0.708754 -10.717769 -1.945823
					CHANNELS 3 Xrotation Yrotation Zrotation
					JOINT RightToeBase
					{
						OFFSET -0.108140 -7.191069 7.372968
						CHANNELS 3 Xrotation Yrotation Zrotation
						JOINT RightToe_End
						{
							OFFSET -0.070227 0.081735 4.479403
							CHANNELS 3 Xrotation Yrotation Zrotation
							End Site
							{
								OFFSET 0 0 0
							}
						}
					}
				}
			}
		}
	}
	JOINT Spine_virtual
	{
		OFFSET 0.000000 0.000000 0.000000
		CHANNELS 3 Xrotation Yrotation Zrotation
		JOINT Spine
		{
			OFFSET 0.000000 6.876099 0.125700
			CHANNELS 3 Xrotation Yrotation Zrotation
			JOINT Spine1
			{
				OFFSET 0.000000 5.730043 0.104720
				CHANNELS 3 Xrotation Yrotation Zrotation
				JOINT Spine1_split
				{
					OFFSET 0.000000 5.730043 0.104720
					CHANNELS 3 Xrotation Yrotation Zrotation
					JOINT Spine2
					{
						OFFSET 0.000000 5.730043 0.104720
						CHANNELS 3 Xrotation Yrotation Zrotation
						JOINT Neck_virtual
						{
							OFFSET 0.000000 0.000000 0.000000
							CHANNELS 3 Xrotation Yrotation Zrotation
							JOINT Neck
							{
								OFFSET 0.000000 10.314075 0.188496
								CHANNELS 3 Xrotation Yrotation Zrotation
								JOINT Head
								{
									OFFSET 0.000000 7.643700 -2.377400
									CHANNELS 3 Xrotation Yrotation Zrotation
									JOINT HeadTop_End
									{
										OFFSET 0.000000 43.788605 -13.619600
										CHANNELS 3 Xrotation Yrotation Zrotation
										End Site
										{
											OFFSET 0 0 0
										}
									}
								}
							}
						}
						JOINT LeftShoulder_virtual
						{
							OFFSET 0.000000 0.000000 0.000000
							CHANNELS 3 Xrotation Yrotation Zrotation
							JOINT LeftShoulder
							{
								OFFSET 2.196100 4.412489 0.087492
								CHANNELS 3 Xrotation Yrotation Zrotation
								JOINT LeftShoulder_split
								{
									OFFSET 2.196100 4.412489 0.087492
									CHANNELS 3 Xrotation Yrotation Zrotation
									JOINT LeftArm
									{
										OFFSET 8.771219 -2.981674 -0.026999
										CHANNELS 3 Xrotation Yrotation Zrotation
										JOINT LeftForeArm
										{
											OFFSET 8.512804 0.000000 -0.000000
											CHANNELS 3 Xrotation Yrotation Zrotation
											JOINT LeftHand
											{
												OFFSET 18.484802 0.000000 -0.000000
												CHANNELS 3 Xrotation Yrotation Zrotation
												End Site
												{
													OFFSET 0 0 0
												}
											}
										}
									}
								}
							}
						}
						JOINT RightShoulder_virtual
						{
							OFFSET 0.000000 0.000000 0.000000
							CHANNELS 3 Xrotation Yrotation Zrotation
							JOINT RightShoulder
							{
								OFFSET -2.196100 4.412496 0.070690
								CHANNELS 3 Xrotation Yrotation Zrotation
								JOINT RightShoulder_split
								{
									OFFSET -2.196100 4.412496 0.070690
									CHANNELS 3 Xrotation Yrotation Zrotation
									JOINT RightArm
									{
										OFFSET -8.771282 -2.981682 -0.094208
										CHANNELS 3 Xrotation Yrotation Zrotation
										JOINT RightForeArm
										{
											OFFSET -8.494598 0.000000 0.000000
											CHANNELS 3 Xrotation Yrotation Zrotation
											JOINT RightHand
											{
												OFFSET -18.483803 0.000000 0.000001
												CHANNELS 3 Xrotation Yrotation Zrotation
												End Site
												{
													OFFSET 0 0 0
												}
											}
										}
									}
								}
							}
						}
					}
				}
			}
		}
	}
}
MOTION
Frames: 10
Frame Time: 0.03333333
-3.310688 27.276447 3.188553 0.000000 0.000000 0.000000 14.805212 -44.787979 17.752205 -57.897000 28.952414 30.876130 44.624556 -26.417915 4.391932 -4.463756 -0.999797 -11.718014 -5.770455 -5.274304 0.266125 0.000000 0.000000 0.000000 12.503031 -40.800593 17.126716 -8.711362 -8.560081 -38.823724 42.224527 6.801836 -4.032074 -53.422874 -15.118147 28.087398 6.544954 5.478928 1.958724 0.000000 0.000000 0.000000 13.578114 -41.561021 17.366220 13.174816 -6.164019 -0.425510 26.274315 -1.944738 -1.495975 -0.128792 -2.817452 1.679493 0.000000 0.000000 0.000000 13.058383 -1.823392 -2.130810 1.903399 3.286286 12.941637 15.182590 0.807178 -6.258563 0.000000 0.000000 0.000000 15.304043 -2.663333 -2.998570 3.477608 -28.601776 2.075984 -0.876660 -4.034273 0.008587 -32.651303 -13.846987 -32.228241 -5.513975 -15.682055 1.225635 0.000000 0.000000 0.000000 14.171337 -1.256354 -1.974032 2.392754 14.390013 18.650614 9.794893 1.529368 2.953901 -10.919195 -9.578617 13.503330 -76.173459 83.180735 73.678541 0.000000 0.000000 0.000000 
-2.953795 27.335386 3.127205 0.000000 0.000000 0.000000 10.758111 -43.395778 14.128693 -58.347465 28.471611 30.565342 46.150062 -27.015186 4.827215 -2.221833 -2.767943 -10.698685 -5.485406 -5.068701 -0.035763 0.000000 0.000000 0.000000 8.490536 -39.424395 13.651376 -4.594494 -9.543996 -37.899934 40.685166 6.517786 -4.015084 -51.900657 -15.853521 28.889378 6.407929 5.107793 2.226288 0.000000 0.000000 0.000000 9.870051 -41.592772 14.498929 13.039901 -5.813511 -0.128417 24.898097 -1.077302 -1.616363 0.347501 -2.873424 2.077382 0.000000 0.000000 0.000000 12.266274 -0.847650 -2.297023 1.053665 4.190976 11.297097 13.879741 1.838646 -8.156418 0.000000 0.000000 0.000000 14.321227 -1.806089 -3.088850 3.328430 -29.018100 2.133944 -0.347610 -3.285537 -0.388397 -30.898905 -10.174564 -30.328803 -6.567921 -16.911188 0.239360 0.000000 0.000000 0.000000 13.288110 -0.455725 -2.135937 2.044682 14.209409 19.490860 9.187919 1.384919 3.711555 -10.714867 -12.163521 11.181810 -81.984933 86.205429 79.789751 0.000000 0.000000 0.000000 
-2.656528 27.342848 3.007950 0.000000 0.000000 0.000000 6.953431 -41.977830 10.811851 -59.271050 28.080294 30.867011 47.574422 -27.283698 5.053677 0.156032 -4.277757 -9.551582 -4.815782 -4.876199 -0.478732 0.000000 0.000000 0.000000 4.876845 -38.185269 10.562369 -1.325357 -10.481490 -36.873668 39.919929 6.289663 -4.058221 -50.374814 -16.412637 29.743490 5.903380 4.791919 2.500088 0.000000 0.000000 0.000000 6.239223 -41.258707 11.686910 12.732163 -5.323253 0.465283 23.629618 -0.305257 -1.663233 0.887139 -3.036726 2.247180 0.000000 0.000000 0.000000 11.467083 0.054362 -2.302554 -0.956037 5.091790 8.940182 12.264458 3.128547 -9.962990 0.000000 0.000000 0.000000 13.400409 -0.964398 -3.001792 3.101602 -29.245883 2.133935 0.495458 -2.523677 -0.721804 -30.171285 -6.773180 -29.136313 -7.829354 -18.816667 -1.045042 0.000000 0.000000 0.000000 12.384643 0.262842 -2.146482 1.761750 13.645061 19.840125 8.650599 1.600867 4.177783 -10.253530 -15.043285 10.418163 -86.921063 88.592219 85.229191 0.000000 0.000000 0.000000 
-2.441332 27.302502 2.899460 0.000000 0.000000 0.000000 3.603502 -41.152580 7.920061 -60.435235 27.717715 31.740203 48.853041 -27.224489 5.175998 2.331742 -5.436799 -8.549303 -4.101753 -4.733170 -0.949475 0.000000 0.000000 0.000000 1.997879 -37.451747 7.975139 0.842565 -11.155200 -35.810193 39.727782 6.295212 -4.164133 -48.741903 -16.626337 30.755491 4.904955 4.591671 2.635583 0.000000 0.000000 0.000000 3.226190 -40.793062 9.116367 12.459071 -4.788319 1.234630 22.327258 0.299567 -1.686109 1.374120 -2.987620 2.124251 0.000000 0.000000 0.000000 10.504010 0.808589 -2.226622 -3.791305 5.930245 6.788989 10.541552 4.658601 -11.464593 0.000000 0.000000 0.000000 12.367776 -0.193362 -2.804683 2.876098 -29.378638 2.112688 1.675075 -2.017381 -0.722227 -29.936627 -4.080983 -28.721977 -9.168258 -21.459963 -2.526287 0.000000 0.000000 0.000000 11.318474 0.859459 -2.050557 1.582068 12.760876 19.459282 8.196510 2.183990 4.138023 -9.675824 -17.312993 11.592532 9.170226 89.385156 -10.269009 0.000000 0.000000 0.000000 
-2.285067 27.252728 2.775866 0.000000 0.000000 0.000000 0.988302 -41.334584 5.546515 -61.558439 27.225732 32.926491 50.182359 -26.832113 5.384879 3.829217 -6.128446 -7.751600 -3.404302 -4.679423 -1.273131 0.000000 0.000000 0.000000 -0.136083 -37.618093 5.850791 1.757433 -11.442584 -34.790323 39.851511 6.575333 -4.306061 -46.872170 -16.416015 31.956741 3.551804 4.560713 2.616169 0.000000 0.000000 0.000000 1.170340 -40.544963 6.967305 12.390897 -4.173285 2.065020 20.882603 0.788593 -1.770170 1.803832 -2.790778 1.517934 0.000000 0.000000 0.000000 9.242548 1.449680 -2.194489 -6.801749 6.673171 5.413681 9.003177 6.330678 -12.528348 0.000000 0.000000 0.000000 11.109767 0.511207 -2.656324 2.682391 -29.360934 2.304283 2.763634 -1.590332 -0.872224 -29.393091 -2.236989 -28.989423 -10.500296 -24.638989 -4.097318 0.000000 0.000000 0.000000 9.974118 1.405840 -1.986626 1.442566 11.480944 18.147169 7.629778 2.919908 3.729349 -8.890673 -18.338800 14.296344 15.241289 87.657992 -15.821640 0.000000 0.000000 0.000000 
-2.123378 27.197817 2.666775 0.000000 0.000000 0.000000 -0.816730 -42.470929 3.618074 -62.248090 26.497473 34.112731 51.336071 -26.080379 5.631439 4.229334 -6.232253 -7.153302 -2.648455 -4.716728 -1.377409 0.000000 0.000000 0.000000 -1.505054 -38.916061 4.126547 1.403202 -11.166462 -33.846063 40.137344 7.040365 -4.506433 -44.869381 -15.800143 33.040781 2.331746 4.663028 2.527596 0.000000 0.000000 0.000000 0.092343 -40.834908 5.248308 12.528592 -3.433038 2.775716 19.181925 1.268701 -1.994071 1.426206 -2.705209 1.036291 0.000000 0.000000 0.000000 7.711590 2.083926 -2.338496 -9.352440 7.395988 4.893748 7.593737 8.032793 -13.088834 0.000000 0.000000 0.000000 9.581466 1.202387 -2.656257 2.552289 -29.102398 2.742072 3.660950 -1.332460 -1.275939 -28.386997 -1.256407 -29.623408 -11.710160 -27.624145 -5.621470 0.000000 0.000000 0.000000 8.337906 1.963803 -2.055049 1.255773 10.113179 16.089969 7.069472 3.156080 3.244597 -8.058664 -18.257946 18.156898 3.695757 85.029489 -3.917169 0.000000 0.000000 0.000000 
-1.890500 27.169342 2.540903 0.000000 0.000000 0.000000 -1.690429 -44.318587 2.153025 -62.376088 25.487585 35.062783 52.033542 -24.912878 5.790663 3.446748 -5.657796 -6.694514 -1.911078 -4.801537 -1.264372 0.000000 0.000000 0.000000 -2.288832 -41.129685 2.693930 -0.081285 -10.403644 -32.999185 40.655103 7.516034 -4.701662 -42.840292 -14.897578 33.661098 1.590182 4.837922 2.467680 0.000000 0.000000 0.000000 -0.126654 -41.729423 4.046081 12.792523 -2.593051 3.255565 17.242254 1.853749 -2.352887 0.892058 -2.392969 0.744442 0.000000 0.000000 0.000000 6.004039 2.785455 -2.642333 -10.803111 8.225488 4.968419 6.419241 9.662358 -13.164341 0.000000 0.000000 0.000000 7.840265 1.940746 -2.826695 2.458801 -28.532337 3.349571 4.272254 -0.951883 -1.900648 -26.704645 -0.817767 -30.283546 -12.820293 -30.102601 -6.998949 0.000000 0.000000 0.000000 6.484840 2.636964 -2.290961 0.875898 9.032299 13.582854 6.540654 2.760028 3.093295 -7.336328 -17.822899 22.908234 -3.627832 81.301545 3.546116 0.000000 0.000000 0.000000 
-1.572464 27.147390 2.347448 0.000000 0.000000 0.000000 -1.745722 -46.519445 1.204233 -62.009956 24.187964 35.621042 52.257204 -23.444684 5.805833 1.963663 -4.470175 -6.353725 -1.341257 -4.907947 -0.960315 0.000000 0.000000 0.000000 -2.637492 -43.932815 1.623111 -2.523015 -9.243870 -32.281164 41.468681 7.858796 -4.891696 -40.848332 -13.856108 33.715613 1.394578 5.041802 2.501922 0.000000 0.000000 0.000000 0.241511 -43.084058 3.413984 12.987182 -1.683044 3.427968 15.184248 2.583017 -2.786610 0.053051 -2.559429 0.566445 0.000000 0.000000 0.000000 4.275693 3.603113 -3.020319 -10.805594 9.266735 5.058933 5.375810 11.237651 -12.864007 0.000000 0.000000 0.000000 6.005936 2.767711 -3.086221 2.333101 -27.491184 4.088587 4.471457 -0.355305 -2.621365 -24.704793 -0.680129 -30.803371 -13.851677 -31.494689 -8.125462 0.000000 0.000000 0.000000 4.557341 3.438829 -2.638357 0.326917 8.583505 10.914326 5.873359 1.904460 3.173543 -6.576901 -17.732580 28.230234 -7.225725 76.518036 7.122734 0.000000 0.000000 0.000000 
-1.201715 27.121374 2.126083 0.000000 0.000000 0.000000 -1.112628 -48.680906 0.858892 -61.454074 22.740666 35.861666 52.074834 -21.951748 5.654717 0.422817 -2.876980 -6.264607 -0.916031 -5.015381 -0.607046 0.000000 0.000000 0.000000 -2.487585 -46.878802 1.068893 -5.723931 -7.794427 -31.739544 42.595686 8.017934 -5.104418 -39.129515 -12.784794 33.216846 1.812158 5.237331 2.595493 0.000000 0.000000 0.000000 1.005587 -44.864904 3.362919 12.931573 -0.827564 3.193529 13.158165 3.383453 -3.189508 -0.263831 -3.428364 0.857521 0.000000 0.000000 0.000000 2.716406 4.490972 -3.306282 -9.528654 10.531556 4.762911 4.319301 12.780892 -12.228749 0.000000 0.000000 0.000000 4.216590 3.644608 -3.294463 2.151455 -25.965603 4.727852 4.292557 0.251018 -2.974511 -22.676629 -0.793133 -31.162380 -14.742612 -31.320686 -8.909200 0.000000 0.000000 0.000000 2.746562 4.268544 -2.958091 -0.301501 9.093954 8.413107 5.087140 1.061922 3.470842 -5.778653 -18.693343 34.050549 -8.854453 70.861567 8.603234 0.000000 0.000000 0.000000 
-0.817931 27.097248 1.901449 0.000000 0.000000 0.000000 0.120465 -50.657331 1.273688 -61.137932 21.309236 35.982960 51.665040 -20.685945 5.313649 -0.796533 -1.238601 -6.446598 -0.514940 -5.125860 -0.303682 0.000000 0.000000 0.000000 -1.742934 -49.444480 1.226436 -9.410224 -6.276350 -31.492465 44.012885 8.026756 -5.343513 -37.708805 -11.767666 32.484636 2.493517 5.423208 2.667268 0.000000 0.000000 0.000000 1.936980 -46.784812 3.925232 12.568271 -0.112291 2.580644 11.420152 4.125601 -3.452383 0.336118 -4.402400 1.199479 0.000000 0.000000 0.000000 1.373187 5.322117 -3.352803 -7.241836 11.817271 3.923774 3.301983 14.326300 -11.331480 0.000000 0.000000 0.000000 2.664716 4.449189 -3.383792 1.908780 -24.058486 5.172424 3.762284 0.966939 -2.890153 -20.571324 -1.073254 -31.727806 -15.518924 -29.487498 -9.287597 0.000000 0.000000 0.000000 1.247946 5.065350 -3.116283 -0.904067 10.562138 6.245858 3.872088 0.935403 3.946328 -4.933208 -20.852475 39.952795 -9.769435 64.551612 9.359156 0.000000 0.000000 0.000000 
